<svg xmlns="http://www.w3.org/2000/svg" fill="none" viewBox="0 0 100 100">
    <rect width="100" height="100" rx="20" fill="#000000"></rect>
    <path fill="#ffffff" d="M11.77 41.17L11.77 32.89L26.26 32.89L26.26 37.86L27.51 37.86Q28.47 35.03 30.78 33.47Q33.09 31.92 36.34 31.92L36.34 31.92Q41.44 31.92 44.55 35.13Q47.65 38.34 47.65 44.89L47.65 44.89L47.65 46.41L38.68 47.24L38.68 46.27Q38.68 43.45 37.23 41.75Q35.79 40.06 32.89 40.06L32.89 40.06Q29.99 40.06 28.33 42.07Q26.68 44.07 26.68 47.79L26.68 47.79L26.68 58.83L34.54 58.83L34.54 67.11L10.95 67.11L10.95 58.83L17.98 58.83L17.98 41.17L11.77 41.17ZM80.50 52.42L89.05 54.55Q87.88 60.63 83.50 64.35Q79.12 68.08 71.80 68.08L71.80 68.08Q68.01 68.08 64.73 66.91Q61.45 65.73 59.04 63.52Q56.62 61.32 55.24 58.07Q53.86 54.83 53.86 50.69L53.86 50.69L53.86 49.86Q53.86 45.72 55.24 42.41Q56.62 39.10 59.07 36.75Q61.52 34.41 64.80 33.16Q68.08 31.92 71.80 31.92L71.80 31.92Q78.98 31.92 83.43 35.65Q87.88 39.37 89.05 45.45L89.05 45.45L80.50 47.65Q80.08 44.62 77.88 42.41Q75.67 40.20 71.67 40.20L71.67 40.20Q69.80 40.20 68.15 40.89Q66.49 41.58 65.25 42.86Q64.01 44.14 63.28 45.96Q62.56 47.79 62.56 50.07L62.56 50.07L62.56 50.48Q62.56 52.76 63.28 54.52Q64.01 56.28 65.25 57.45Q66.49 58.63 68.15 59.21Q69.80 59.80 71.67 59.80L71.67 59.80Q75.67 59.80 77.77 57.80Q79.88 55.80 80.50 52.42L80.50 52.42Z">
    </path>
        <style>
        path { fill: #000; }
        rect { fill: #FFF; }
        @media (prefers-color-scheme: dark) {
            path { fill: #FFF; }
            rect { fill: #000; }
        }
    </style>
</svg>